<svg width="35" height="36" viewBox="0 0 35 36" fill="none" xmlns="http://www.w3.org/2000/svg">
<path d="M17.8252 17.4615L17.5 17.7915L17.1733 17.4615C16.5663 16.8451 15.7477 16.4995 14.8947 16.4995C14.0417 16.4995 13.223 16.8451 12.616 17.4615C12.3148 17.7596 12.0751 18.1172 11.9114 18.5128C11.7477 18.9085 11.6633 19.334 11.6633 19.764C11.6633 20.194 11.7477 20.6195 11.9114 21.0152C12.0751 21.4108 12.3148 21.7684 12.616 22.0665L17.5 27L22.384 22.0665C22.6852 21.7684 22.9249 21.4108 23.0886 21.0152C23.2523 20.6195 23.3367 20.194 23.3367 19.764C23.3367 19.334 23.2523 18.9085 23.0886 18.5128C22.9249 18.1172 22.6852 17.7596 22.384 17.4615C21.7767 16.845 20.9578 16.4993 20.1046 16.4993C19.2514 16.4993 18.4325 16.845 17.8252 17.4615Z" fill="black"/>
<path d="M31.6561 16.9395L18.5311 3.4395C18.3957 3.30008 18.235 3.18947 18.0581 3.11401C17.8812 3.03854 17.6915 2.99969 17.5 2.99969C17.3085 2.99969 17.1188 3.03854 16.9419 3.11401C16.765 3.18947 16.6043 3.30008 16.469 3.4395L3.34397 16.9395C3.14008 17.1493 3.00124 17.4165 2.945 17.7074C2.88875 17.9984 2.91763 18.2999 3.02798 18.574C3.13834 18.848 3.32521 19.0823 3.56497 19.2471C3.80474 19.4119 4.08663 19.4999 4.37501 19.5H5.83335V30C5.83335 31.6545 7.14147 33 8.75001 33H26.25C27.8586 33 29.1667 31.6545 29.1667 30V19.5H30.625C30.9134 19.4999 31.1953 19.4119 31.4351 19.2471C31.6748 19.0823 31.8617 18.848 31.972 18.574C32.0824 18.2999 32.1113 17.9984 32.055 17.7074C31.9988 17.4165 31.8599 17.1493 31.6561 16.9395ZM26.2515 30H8.75001V15.6225L17.5 6.6225L26.25 15.6225V22.5L26.2515 30Z" fill="black"/>
</svg>
